<?xml version="1.0" encoding="utf-8"?>
<!-- Generator: Adobe Illustrator 28.2.0, SVG Export Plug-In . SVG Version: 6.00 Build 0)  -->
<svg version="1.1" id="Layer_1" xmlns="http://www.w3.org/2000/svg" xmlns:xlink="http://www.w3.org/1999/xlink" x="0px" y="0px"
	 viewBox="0 0 110 135" style="enable-background:new 0 0 110 135;" xml:space="preserve">
<path d="M65.9,16.4c-1.3-0.5-2.6-0.9-4-1.3c-1.6-0.4-3.3-0.1-4.6,0.9c-1.3,1-2.1,2.5-2.1,4.2L55,29.7l-0.5,45.2
	c-5.9-4.1-13.3-5.3-20.2-3.3c-6.9,2-12.5,7-15.3,13.6c-2.8,6.6-2.6,14.1,0.7,20.5C23,112,29,116.6,36,118.1c7,1.5,14.3-0.2,19.9-4.7
	c5.6-4.5,8.9-11.2,9-18.4l0-2.7l0.7-57.6c12.5,7,19.8,16,18.2,24.3c-0.1,0.5-0.3,1-0.5,1.5c5.5-4.8,8.8-10.6,8.8-16.9
	C92.3,32.3,81.7,21.9,65.9,16.4L65.9,16.4z M88.7,43.7c-0.1,2.7-0.8,5.4-2.2,7.7c-2.2-6.9-8.9-13.8-19.2-19.6l-5-2.8l-0.8,59.9
	l0,6.1c0,4.9-1.8,9.6-5.1,13.3s-7.7,6.1-12.5,6.8c-1.1,0.2-2.2,0.2-3.3,0.2c-6.2-0.1-12-2.9-15.8-7.8c-4.1-5.2-5.5-12-3.7-18.4
	C23,82.6,27.7,77.5,34,75.3c6.2-2.2,13.2-1.3,18.6,2.4l5.3,3.6l0.8-61.1c0-0.9,0.7-1.7,1.6-1.8c0.2,0,0.5,0,0.7,0
	c1.3,0.3,2.5,0.7,3.8,1.1C79.7,24.8,88.8,34.1,88.7,43.7L88.7,43.7z"/>
</svg>
