<svg xmlns="http://www.w3.org/2000/svg" version="1.1" viewBox="-5.0 -10.0 110.0 135.0">
 <path d="m68.953 2.2969c-1.1758-0.64453-2.4258-1.2539-3.75-1.8281-1.5078-0.66406-3.2383-0.59375-4.6875 0.19531-1.4453 0.79297-2.4453 2.207-2.7031 3.8359l-1.5625 9.375-7.1562 44.656c-5.2461-4.8828-12.406-7.1562-19.508-6.1953-7.1055 0.96094-13.402 5.0547-17.168 11.152-3.7617 6.1016-4.5938 13.566-2.2695 20.344 2.3281 6.7773 7.5703 12.156 14.289 14.66 6.7148 2.5 14.199 1.8594 20.395-1.7461 6.1953-3.6055 10.445-9.7969 11.59-16.871l0.42188-2.625 9.1719-56.828c11.297 8.7812 17.188 18.75 14.391 26.734-0.21094 0.5-0.44922 0.98438-0.71875 1.4531 6.1406-3.9688 10.219-9.1875 11.219-15.375 1.8438-11.359-7.0938-23.109-21.953-30.938zm18.547 30.375c-0.46094 2.668-1.582 5.1758-3.2656 7.2969-1.1719-7.1562-6.7344-14.969-16.109-22.25l-4.5469-3.5312-9.5469 59.156-0.90625 5.9844c-0.75781 4.832-3.2266 9.2344-6.9531 12.402s-8.4688 4.8945-13.359 4.8633c-1.1094 0-2.2188-0.089844-3.3125-0.26562-6.0977-0.98047-11.426-4.6602-14.5-10.016-3.3203-5.7266-3.6758-12.707-0.95312-18.742 2.7266-6.0352 8.1914-10.387 14.684-11.688 6.4922-1.2969 13.215 0.61328 18.051 5.1328l4.6875 4.3594 9.7188-60.328c0.18359-0.90234 0.97266-1.5508 1.8906-1.5625 0.24609 0 0.49219 0.054687 0.71875 0.15625 1.2188 0.51172 2.4102 1.0664 3.5781 1.6719 13.969 7.375 21.688 17.859 20.125 27.359z"/>
<text x="0.0" y="117.5" font-size="5.0" font-weight="bold" font-family="Arbeit Regular, Helvetica, Arial-Unicode, Arial, Sans-serif" fill="#000000">Created by Jae Deasigner</text><text x="0.0" y="122.5" font-size="5.0" font-weight="bold" font-family="Arbeit Regular, Helvetica, Arial-Unicode, Arial, Sans-serif" fill="#000000">from Noun Project</text></svg>