<?xml version="1.0" encoding="utf-8"?>
<!-- Generator: Adobe Illustrator 28.2.0, SVG Export Plug-In . SVG Version: 6.00 Build 0)  -->
<svg version="1.1" id="Layer_1" xmlns="http://www.w3.org/2000/svg" xmlns:xlink="http://www.w3.org/1999/xlink" x="0px" y="0px"
	 viewBox="0 0 841.9 595.3" style="enable-background:new 0 0 841.9 595.3;" xml:space="preserve">
<style type="text/css">
	.st0{fill:#FFFFFF;stroke:#000000;stroke-miterlimit:10;}
	.st1{fill:none;}
	.st2{font-family:'ArialMT';}
	.st3{font-size:60px;}
</style>
<path class="st0" d="M234.3,135.8"/>
<path class="st0" d="M225.8,146.5"/>
<path class="st0" d="M228.7,135.8"/>
<path class="st0" d="M712.6,65.6H144.7c-2.8,0-5,2.2-5,5v95V411c-18.1-12.4-47.5-11.7-73.6,3.7c-32.8,19.4-47.8,54.6-33.6,78.6
	c14.2,24,52.3,27.8,85.1,8.4c28.2-16.7,43.2-45.1,37.8-68V170.6c0-2.8,2.2-5,5-5h255.4c2.8,0,5,2.2,5,5V412
	c-17.9-13.6-48.3-13.2-75.2,2.6c-32.8,19.4-47.8,54.6-33.6,78.6c14.2,24,52.3,27.8,85.1,8.4c24-14.2,38.4-36.8,38.9-57.3h0.5V170.6
	c0-2.8,2.2-5,5-5h255.4c2.8,0,5,2.2,5,5v241.1c-18-13.3-48.1-12.8-74.7,3c-32.8,19.4-47.8,54.6-33.6,78.6
	c14.2,24,52.3,27.8,85.1,8.4c24-14.2,38.4-36.8,38.9-57.3l0,0V165.6v-95C717.6,67.9,715.3,65.6,712.6,65.6z"/>
<rect x="71.5" y="432.2" class="st1" width="85" height="82"/>
<text transform="matrix(1 0 0 1 71.4895 474.7843)" class="st2 st3">5</text>
<rect x="636" y="433.8" class="st1" width="85" height="82"/>
<text transform="matrix(1 0 0 1 636.0001 476.4053)" class="st2 st3">0</text>
<rect x="353.7" y="433.8" class="st1" width="85" height="82"/>
<text transform="matrix(1 0 0 1 353.7448 476.4053)" class="st2 st3">0</text>
</svg>
